<svg width="120" height="100" viewBox="0 0 120 100" fill="none" xmlns="http://www.w3.org/2000/svg">
<g id="triangle-icon" clip-path="url(#clip0_1_3)">
<rect width="120" height="100" fill="white"/>
<g id="dark">
<path id="dark-polygon-2" d="M43.6589 47.4299C45.6322 48.5909 45.6301 51.4454 43.655 52.6035L12.7843 70.7043C10.7835 71.8774 8.26514 70.4334 8.26689 68.1141L8.29426 31.8659C8.29601 29.5465 10.8165 28.1064 12.8156 29.2825L43.6589 47.4299Z" fill="#1100D7" fill-opacity="0.7"/>
<path id="dark-polygon-1" d="M43.6589 47.4299C45.6322 48.5909 45.6301 51.4454 43.655 52.6035L12.7843 70.7043C10.7835 71.8774 8.26512 70.4334 8.26687 68.1141L8.29424 31.8659C8.29599 29.5465 10.8165 28.1064 12.8156 29.2825L43.6589 47.4299Z" fill="#1100D7" fill-opacity="0.7"/>
</g>
<g id="light">
<path id="light-polygon-1" d="M43.6589 47.4299C45.6322 48.5909 45.6301 51.4454 43.655 52.6035L12.7843 70.7043C10.7835 71.8774 8.26512 70.4334 8.26687 68.1141L8.29424 31.8659C8.29599 29.5465 10.8165 28.1064 12.8156 29.2825L43.6589 47.4299Z" fill="#00BDD7" fill-opacity="0.7"/>
</g>
</g>
<defs>
<clipPath id="clip0_1_3">
<rect width="120" height="100" fill="white"/>
</clipPath>
</defs>
</svg>
